<svg width="500" height="470" viewBox="0 0 500 470" fill="none" xmlns="http://www.w3.org/2000/svg">
<path d="M500 470H385.533L347.613 365.477L286.517 198.522L252.106 92.5967H245.084L209.269 198.522L148.174 365.477L109.55 470H0L173.455 0H326.545L500 470Z" fill="#FAF5EA"/>
<path d="M252.208 245.853L255.032 251.499L260.679 316.423L266.326 324.891L294.563 327.713L322.799 333.359L334.093 339.004L325.622 347.473L311.504 350.296L260.679 353.118V381.347L252.208 437.803L240.913 440.625L235.267 401.106V355.942L209.854 350.296L173.147 347.473L164.676 339.004L190.089 330.536L226.795 327.713L232.443 324.891L238.09 293.84V248.675L243.737 234.562L252.208 245.853Z" fill="#FAF5EA"/>
</svg>
