<svg width="2479" height="559" viewBox="0 0 2479 559" fill="none" xmlns="http://www.w3.org/2000/svg">
<path d="M783.188 0C937.924 9.04056e-05 1002.74 80.2039 1002.74 187.952V194.433H882.835V185.521C882.835 128.812 859.341 110.179 779.137 110.179C709.465 110.179 687.591 125.571 687.591 159.597C687.591 194.433 702.173 202.534 765.364 214.687L861.771 233.319C976 255.193 1014.89 315.144 1014.89 394.537C1014.89 481.222 956.558 558.995 802.631 558.995C643.033 558.995 569.31 494.184 569.31 374.283V363.752H688.4V371.854C688.4 431.803 710.275 448.816 808.302 448.816C877.164 448.816 894.177 435.044 894.177 398.588C894.177 362.132 886.075 349.169 809.922 336.207L714.325 319.194C610.627 301.371 566.88 248.712 566.88 164.458C566.88 81.8239 627.64 0 783.188 0ZM2218.02 0C2380.05 0 2478.08 110.179 2478.08 279.497C2478.08 448.816 2380.05 558.995 2218.02 558.995C2056 558.995 1957.16 448.816 1957.16 279.497C1957.16 110.179 2056 0.000119251 2218.02 0ZM576.82 550.895H444.768L401.02 430.184L361.323 321.625L330.538 237.371L290.841 115.04H282.739L241.422 237.371L210.637 321.625L170.939 430.184L126.382 550.895H0L200.104 8.10254H376.716L576.82 550.895ZM1464.44 117.471H1289.45V550.895H1167.92V117.471H992.935V8.10254H1464.44V117.471ZM1725.53 8.10254C1855.15 8.10254 1927.25 68.0523 1927.25 173.37C1927.25 261.675 1883.51 314.334 1790.34 322.436V330.537C1837.33 345.12 1860.01 373.474 1881.08 414.791L1949.94 550.895H1808.16L1744.16 425.323C1719.86 378.335 1703.65 358.082 1646.13 358.082H1597.53V550.895H1476V8.10254H1725.53ZM291.15 292.095L294.29 298.393L300.568 370.819L306.847 380.267L338.24 383.416L369.633 389.714L382.189 396.012L372.772 405.459L357.075 408.607L300.568 411.757V443.246L291.15 506.227L278.593 509.375L272.314 465.289V414.905L244.061 408.607L203.25 405.459L193.832 396.012L222.086 386.564L262.896 383.416L269.175 380.267L275.454 345.628V295.244L281.732 279.499L291.15 292.095ZM2218.02 117.47C2124.86 117.47 2086.78 152.306 2086.78 279.497C2086.78 406.689 2124.86 441.525 2218.02 441.525C2311.19 441.525 2348.46 406.689 2348.46 279.497C2348.46 152.306 2311.19 117.47 2218.02 117.47ZM1597.53 257.625H1731.2C1787.91 257.625 1806.54 240.612 1806.54 187.143C1806.54 135.294 1787.91 117.471 1731.2 117.471H1597.53V257.625Z" fill="#FAF5EA"/>
</svg>
